<svg width="201" height="88" viewBox="0 0 201 88" fill="none" xmlns="http://www.w3.org/2000/svg">
<path d="M73.32 33.312C75.304 33.312 77.08 33.728 78.648 34.56C80.248 35.392 81.496 36.672 82.392 38.4C83.32 40.096 83.784 42.176 83.784 44.64V60H80.472V45.024C80.472 42.176 79.752 40 78.312 38.496C76.904 36.992 74.968 36.24 72.504 36.24C69.976 36.24 67.96 37.04 66.456 38.64C64.952 40.24 64.2 42.592 64.2 45.696V60H60.84V24.48H64.2V38.256C65.032 36.688 66.248 35.472 67.848 34.608C69.48 33.744 71.304 33.312 73.32 33.312ZM102.687 60.384C100.223 60.384 97.999 59.84 96.015 58.752C94.063 57.632 92.511 56.064 91.359 54.048C90.239 52 89.679 49.616 89.679 46.896C89.679 44.176 90.255 41.808 91.407 39.792C92.559 37.744 94.127 36.176 96.111 35.088C98.095 33.968 100.319 33.408 102.783 33.408C105.247 33.408 107.471 33.968 109.455 35.088C111.471 36.176 113.039 37.744 114.159 39.792C115.311 41.808 115.887 44.176 115.887 46.896C115.887 49.584 115.311 51.952 114.159 54C113.007 56.048 111.423 57.632 109.407 58.752C107.391 59.84 105.151 60.384 102.687 60.384ZM102.687 57.456C104.415 57.456 106.015 57.072 107.487 56.304C108.959 55.504 110.143 54.32 111.039 52.752C111.967 51.152 112.431 49.2 112.431 46.896C112.431 44.592 111.983 42.656 111.087 41.088C110.191 39.488 109.007 38.304 107.535 37.536C106.063 36.736 104.463 36.336 102.735 36.336C101.007 36.336 99.407 36.736 97.935 37.536C96.463 38.304 95.279 39.488 94.383 41.088C93.519 42.656 93.087 44.592 93.087 46.896C93.087 49.2 93.519 51.152 94.383 52.752C95.279 54.32 96.447 55.504 97.887 56.304C99.359 57.072 100.959 57.456 102.687 57.456ZM125.372 38.448C126.108 36.816 127.228 35.552 128.732 34.656C130.268 33.76 132.14 33.312 134.348 33.312V36.816H133.436C131.004 36.816 129.052 37.472 127.58 38.784C126.108 40.096 125.372 42.288 125.372 45.36V60H122.012V33.792H125.372V38.448ZM143.771 36.624V52.896C143.771 54.496 144.075 55.6 144.683 56.208C145.291 56.816 146.363 57.12 147.898 57.12H150.971V60H147.371C145.003 60 143.243 59.456 142.091 58.368C140.939 57.248 140.363 55.424 140.363 52.896V36.624H136.715V33.792H140.363V27.216H143.771V33.792H150.971V36.624H143.771ZM157.088 60.24C156.384 60.24 155.792 60 155.312 59.52C154.864 59.04 154.64 58.448 154.64 57.744C154.64 57.04 154.864 56.464 155.312 56.016C155.792 55.536 156.384 55.296 157.088 55.296C157.76 55.296 158.32 55.536 158.768 56.016C159.248 56.464 159.488 57.04 159.488 57.744C159.488 58.448 159.248 59.04 158.768 59.52C158.32 60 157.76 60.24 157.088 60.24ZM166.911 28.848C166.239 28.848 165.663 28.608 165.183 28.128C164.703 27.648 164.463 27.056 164.463 26.352C164.463 25.648 164.703 25.072 165.183 24.624C165.663 24.144 166.239 23.904 166.911 23.904C167.583 23.904 168.159 24.144 168.639 24.624C169.119 25.072 169.359 25.648 169.359 26.352C169.359 27.056 169.119 27.648 168.639 28.128C168.159 28.608 167.583 28.848 166.911 28.848ZM168.591 33.792V60H165.231V33.792H168.591ZM180.567 36.624V52.896C180.567 54.496 180.871 55.6 181.479 56.208C182.087 56.816 183.159 57.12 184.695 57.12H187.767V60H184.167C181.799 60 180.039 59.456 178.887 58.368C177.735 57.248 177.159 55.424 177.159 52.896V36.624H173.511V33.792H177.159V27.216H180.567V33.792H187.767V36.624H180.567Z" fill="black"/>
<path d="M29.0836 45.5086L29.0836 52.3686C29.0836 55.1819 30.2012 57.88 32.1905 59.8693C34.1798 61.8586 36.8778 62.9761 39.6911 62.9761C42.5044 62.9761 45.2025 61.8586 47.1918 59.8693C49.181 57.88 50.2986 55.1819 50.2986 52.3686L50.2961 43.2261C50.296 41.5295 49.8889 39.8577 49.109 38.351C48.329 36.8443 47.199 35.5467 45.8139 34.5671C44.4287 33.5874 42.8287 32.9544 41.1482 32.7211C39.4677 32.4877 37.7558 32.6609 36.1561 33.2261L36.1561 36.1561C36.1564 36.4539 36.1942 36.7504 36.2686 37.0386C37.3454 36.4427 38.559 36.1382 39.7895 36.155C41.02 36.1719 42.2248 36.5096 43.2848 37.1348C44.3448 37.76 45.2233 38.651 45.8334 39.7198C46.4435 40.7885 46.7642 41.998 46.7636 43.2286L46.7661 52.3661C46.7661 54.2425 46.0207 56.0421 44.6939 57.3689C43.3671 58.6957 41.5675 59.4411 39.6911 59.4411C37.8147 59.4411 36.0152 58.6957 34.6883 57.3689C33.3615 56.0421 32.6161 54.2425 32.6161 52.3661L32.6186 48.4036C31.2907 47.6352 30.0986 46.6592 29.0836 45.5086Z" fill="black"/>
<path d="M29.0861 36.1561C29.0862 37.8527 29.4933 39.5245 30.2733 41.0312C31.0532 42.5379 32.1832 43.8356 33.5684 44.8152C34.9536 45.7948 36.5536 46.4279 38.234 46.6612C39.9145 46.8945 41.6264 46.7213 43.2261 46.1561L43.2236 42.2786C42.1486 42.8989 40.9293 43.2253 39.6882 43.225C38.4471 43.2248 37.2279 42.8979 36.1532 42.2772C35.0785 41.6564 34.186 40.7638 33.5656 39.6889C32.9452 38.614 32.6186 37.3947 32.6186 36.1536L32.6161 27.0161C32.6161 25.1397 33.3615 23.3402 34.6883 22.0134C36.0152 20.6865 37.8147 19.9411 39.6911 19.9411C41.5675 19.9411 43.3671 20.6865 44.6939 22.0134C46.0207 23.3402 46.7661 25.1397 46.7661 27.0161L46.7636 30.9786C48.0936 31.7486 49.2886 32.7286 50.3011 33.8761L50.3011 27.0161C50.3011 24.2028 49.1835 21.5048 47.1943 19.5155C45.205 17.5262 42.5069 16.4086 39.6936 16.4086C36.8803 16.4086 34.1823 17.5262 32.193 19.5155C30.2037 21.5048 29.0861 24.2028 29.0861 27.0161L29.0861 36.1561Z" fill="black"/>
</svg>
